<svg xmlns="http://www.w3.org/2000/svg" width="430" height="430" style="width:100%;height:100%;transform:translate3d(0,0,0);content-visibility:visible" viewBox="0 0 430 430"><defs><path id="a" style="display:none"/><path id="b" style="display:none"/><path id="c" fill="red" d="M158.511-130.497h-317.022a3 3 0 0 0-3 3v254.994a3 3 0 0 0 3 3h317.022a3 3 0 0 0 3-3v-254.994a3 3 0 0 0-3-3z" style="display:block" transform="matrix(1 0 0 1.01516 214 214.5)"/><path id="d" fill="#4BB3FD" d="M158.522-130.036H-158.5a3 3 0 0 0-3 3v254.01a3 3 0 0 0 3 3h317.022a3 3 0 0 0 3-3v-254.01a3 3 0 0 0-3-3z" style="display:block" transform="matrix(1 0 0 1.01516 215 215)"/><path id="g" fill="#4BB3FD" d="M158.522-130.036H-158.5a3 3 0 0 0-3 3v254.01a3 3 0 0 0 3 3h317.022a3 3 0 0 0 3-3v-254.01a3 3 0 0 0-3-3z" style="display:block" transform="matrix(1 0 0 1.01516 215 215)"/><path id="e" fill="#4BB3FD" d="M158.522-130.036H-158.5a3 3 0 0 0-3 3v254.01a3 3 0 0 0 3 3h317.022a3 3 0 0 0 3-3v-254.01a3 3 0 0 0-3-3z" style="display:block" transform="matrix(1 0 0 1.01516 215 215)"/><path id="f" fill="#4BB3FD" d="M158.522-130.036H-158.5a3 3 0 0 0-3 3v254.01a3 3 0 0 0 3 3h317.022a3 3 0 0 0 3-3v-254.01a3 3 0 0 0-3-3z" style="display:block" transform="matrix(1 0 0 1.01516 215 215)"/><mask id="q" mask-type="alpha"><use xmlns:ns1="http://www.w3.org/1999/xlink" ns1:href="#a"/></mask><mask id="p" mask-type="alpha"><use xmlns:ns2="http://www.w3.org/1999/xlink" ns2:href="#b"/></mask><mask id="n" mask-type="alpha"><use xmlns:ns3="http://www.w3.org/1999/xlink" ns3:href="#c"/></mask><mask id="m" mask-type="alpha"><use xmlns:ns4="http://www.w3.org/1999/xlink" ns4:href="#d"/></mask><mask id="l" mask-type="alpha"><use xmlns:ns5="http://www.w3.org/1999/xlink" ns5:href="#e"/></mask><mask id="j" mask-type="alpha"><use xmlns:ns6="http://www.w3.org/1999/xlink" ns6:href="#f"/></mask><mask id="k" mask-type="alpha"><use xmlns:ns7="http://www.w3.org/1999/xlink" ns7:href="#g"/></mask><clipPath id="h"><path d="M0 0h430v430H0z"/></clipPath><clipPath id="o"><path d="M0 0h430v430H0z"/></clipPath><clipPath id="i"><path d="M0 0h430v430H0z"/></clipPath></defs><g clip-path="url(#h)"><g clip-path="url(#i)" style="display:block"><path fill="#4BB3FD" d="M158.507-131.961h-317.023a3 3 0 0 0-3 3l.016 257.906a3 3 0 0 0 3 3h317.022a3 3 0 0 0 3-3l-.015-257.906a3 3 0 0 0-3-3z" class="secondary" style="display:block" transform="translate(215 215)"/><g mask="url(#j)" style="mix-blend-mode:multiply;display:none"><path class="secondary"/></g><g fill="#EBE6EF" mask="url(#k)" style="display:block"><path d="M657.963 343.765V86a3 3 0 0 0-3-3H474.157a3 3 0 0 0-3 3v257.765a3 3 0 0 0 3 3h180.806a3 3 0 0 0 3-3z" class="tertiary"/><path d="M348.94-132h-89.843a3 3 0 0 0-3 3v257.765a3 3 0 0 0 3 3h89.843V-132z" class="tertiary" opacity=".5" style="mix-blend-mode:multiply" transform="translate(215.06 215)"/><path d="M308.463 343.883V86.117a3 3 0 0 0-3-3H124.657a3 3 0 0 0-3 3v257.766a3 3 0 0 0 3 3h180.806a3 3 0 0 0 3-3z" class="tertiary"/><path d="M-.06-131.883h-90.343a3 3 0 0 0-3 3v257.766a3 3 0 0 0 3 3H-.06v-263.766z" class="tertiary" opacity=".5" style="mix-blend-mode:multiply" transform="translate(215.06 215)"/></g><g mask="url(#l)" opacity=".4" style="mix-blend-mode:multiply;display:block"><path fill="#4BB3FD" d="M54.369 346.501a3 3 0 0 0 2.122.879h32.584V83.62H56.491a3 3 0 0 0-3 3v257.76c0 .796.315 1.558.878 2.121z" class="secondary" opacity="1"/></g><g mask="url(#m)" opacity=".4" style="mix-blend-mode:multiply;display:block"><path fill="#4BB3FD" d="M340.985 83.62h-32.526v263.76h32.526V83.62z" class="secondary" opacity="1"/></g><g mask="url(#n)" style="display:block"><path fill="none" stroke="#121331" stroke-linecap="round" stroke-linejoin="round" stroke-width="7" d="M656.963 363.265V65.5a3 3 0 0 0-3-3H473.157a3 3 0 0 0-3 3v297.765a3 3 0 0 0 3 3h180.806a3 3 0 0 0 3-3zm-349.5.118V65.617a3 3 0 0 0-3-3H123.657a3 3 0 0 0-3 3v297.766a3 3 0 0 0 3 3h180.806a3 3 0 0 0 3-3z" class="primary"/></g><path fill="none" stroke="#121331" stroke-linecap="round" stroke-linejoin="round" stroke-width="7" d="M158.511-131.383h-317.022a3 3 0 0 0-3 3v256.766a3 3 0 0 0 3 3h317.022a3 3 0 0 0 3-3v-256.766a3 3 0 0 0-3-3z" class="primary" style="display:block" transform="translate(214 214.5)"/></g><g clip-path="url(#o)" style="display:none"><path class="secondary" style="display:none"/><path class="secondary" style="mix-blend-mode:multiply;display:none"/><path fill="none" class="primary" style="display:none"/><g mask="url(#p)" style="display:none"><path class="secondary"/></g><g mask="url(#q)" style="mix-blend-mode:multiply;display:none"><path class="secondary"/></g><path fill="none" class="primary" style="display:none"/><g style="display:none"><path class="tertiary"/><path class="tertiary" style="mix-blend-mode:multiply"/></g><path fill="none" class="primary" style="display:none"/><g fill="none" style="display:none"><path class="primary"/><path class="primary"/><path class="primary"/><path class="primary"/></g></g></g></svg>