<svg xmlns="http://www.w3.org/2000/svg" width="430" height="430" style="width:100%;height:100%;transform:translate3d(0,0,0);content-visibility:visible" viewBox="0 0 430 430"><defs><clipPath id="c"><path d="M0 0h430v430H0z"/></clipPath><clipPath id="h"><path d="M0 0h430v430H0z"/></clipPath><clipPath id="f"><path d="M0 0h430v430H0z"/></clipPath><clipPath id="d"><path d="M0 0h430v430H0z"/></clipPath><path id="a" fill="#FAF0F0" d="M375.119 348.433H54.881V81.567h320.238v266.866z" style="display:block"/><path id="b" style="display:none"/><mask id="g" mask-type="alpha"><use xmlns:ns1="http://www.w3.org/1999/xlink" ns1:href="#a"/></mask><mask id="e" mask-type="alpha"><use xmlns:ns2="http://www.w3.org/1999/xlink" ns2:href="#b"/></mask></defs><g clip-path="url(#c)"><g clip-path="url(#d)" style="display:none"><path class="secondary" style="display:none"/><path class="secondary" style="mix-blend-mode:multiply;display:none"/><g fill="none" mask="url(#e)" style="display:none"><path class="primary"/><path class="primary"/></g><path fill="none" class="primary" style="display:none"/></g><g clip-path="url(#f)" style="display:block"><path fill="#EBE6EF" d="M157.119 133.433h-314.238a3 3 0 0 1-3-3v-260.866a3 3 0 0 1 3-3h314.238a3 3 0 0 1 3 3v260.866a3 3 0 0 1-3 3z" class="secondary" style="display:block" transform="translate(215 215)"/><g opacity=".5" style="mix-blend-mode:multiply;display:block"><path fill="#EBE6EF" d="M54.88 85.07a3 3 0 0 1 3-3H95v266.87H57.88a3 3 0 0 1-3-3V85.07z" class="secondary" opacity="1"/></g><g fill="none" stroke="#121331" stroke-width="7" mask="url(#g)" style="display:block"><path stroke-linecap="round" stroke-linejoin="round" d="M268.373 215H54.881m106.746 0v133.433M268.127 215v133.433m.246-266.866v132.866m113.008 55.5.246 78.432" class="primary"/><path d="M268.75 84.767h106" class="primary" opacity="0"/></g><path fill="none" stroke="#121331" stroke-linecap="round" stroke-linejoin="round" stroke-width="7" d="M160.119 133.433h-320.238v-266.866h320.238v266.866z" class="primary" style="display:block" transform="translate(215 215)"/></g><g clip-path="url(#h)" style="display:none"><g style="display:none"><path class="secondary"/><path class="secondary"/><path class="secondary"/></g><path class="secondary" style="mix-blend-mode:multiply;display:none"/><g fill="none" style="display:none"><path class="primary"/><path class="primary"/><path class="primary"/><path class="primary"/><path class="primary"/><path class="primary"/><path class="primary"/><path class="primary"/><path class="primary"/><path class="primary"/></g><g fill="none" style="display:none"><path class="primary"/><path class="primary"/><path class="primary"/><path class="primary"/></g></g></g></svg>